<svg xmlns="http://www.w3.org/2000/svg" fill="none" viewBox="0 0 24 24" id="Code--Streamline-Rounded-Material" height="24" width="24" style="background-color: #ffffff">
  <desc>
    Code Streamline Icon: https://streamlinehq.com
  </desc>
  <path fill="#000000" d="m4.149805 11.94995 4.399995 4.4c0.15 0.15 0.22085 0.325 0.2125 0.525 -0.00835 0.2 -0.0875 0.375 -0.2375 0.525 -0.15 0.15 -0.32915 0.225 -0.5375 0.225 -0.20835 0 -0.3875 -0.075 -0.5375 -0.225l-4.924995 -4.925c-0.083335 -0.08335 -0.141665 -0.16665 -0.175 -0.25 -0.033335 -0.08335 -0.05 -0.175 -0.05 -0.275 0 -0.1 0.016665 -0.19165 0.05 -0.275 0.033335 -0.08335 0.091665 -0.16665 0.175 -0.25l4.999995 -5c0.15 -0.15 0.32915 -0.225 0.5375 -0.225 0.20835 0 0.3875 0.075 0.5375 0.225 0.15 0.15 0.225 0.32915 0.225 0.5375 0 0.20835 -0.075 0.3875 -0.225 0.5375l-4.449995 4.45Zm15.699995 0 -4.4 -4.4c-0.15 -0.15 -0.22085 -0.325 -0.2125 -0.525 0.00835 -0.2 0.0875 -0.375 0.2375 -0.525 0.15 -0.15 0.32915 -0.225 0.5375 -0.225 0.20835 0 0.3875 0.075 0.5375 0.225l4.925 4.925c0.08335 0.08335 0.14165 0.16665 0.175 0.25 0.03335 0.08335 0.05 0.175 0.05 0.275 0 0.1 -0.01665 0.19165 -0.05 0.275 -0.03335 0.08335 -0.09165 0.16665 -0.175 0.25l-5 5c-0.15 0.15 -0.325 0.22085 -0.525 0.2125 -0.2 -0.00835 -0.375 -0.0875 -0.525 -0.2375 -0.15 -0.15 -0.225 -0.32915 -0.225 -0.5375 0 -0.20835 0.075 -0.3875 0.225 -0.5375l4.425 -4.425Z" stroke-width="0.5"></path>
</svg>